Coordinates
version=1
nRows=13
nColumns=36
inDegrees=yes

Units are S.I. units (second, meters, Newtons, ...)
If the header above contains a line with 'inDegrees', this indicates whether rotational values are in degrees (yes) or radians (no).

endheader
time	pelvis_tilt	pelvis_list	pelvis_rotation	pelvis_tx	pelvis_ty	pelvis_tz	hip_flexion_r	hip_adduction_r	hip_rotation_r	knee_angle_r	knee_angle_r_beta	ankle_angle_r	subtalar_angle_r	mtp_angle_r	hip_flexion_l	hip_adduction_l	hip_rotation_l	knee_angle_l	knee_angle_l_beta	ankle_angle_l	subtalar_angle_l	mtp_angle_l	lumbar_extension	lumbar_bending	lumbar_rotation	arm_flex_r	arm_add_r	arm_rot_r	elbow_flex_r	pro_sup_r	arm_flex_l	arm_add_l	arm_rot_l	elbow_flex_l	pro_sup_l
      2.90000000	    -15.94981166	      0.83176710	     -1.38227312	      0.12048318	      1.19452283	     -0.04848754	     17.66908756	      1.79343597	      2.53729062	     37.77954818	      0.65937751	     24.31060016	    -10.25544868	     -7.49999987	     15.15399114	     -1.81947315	      4.75373785	     35.94513937	      0.62736103	     25.00468376	    -10.65755459	     -7.49999987	      1.95357076	      3.51451241	    -19.15343246	     39.52788391	    -15.89097523	     33.50236697	     87.20375332	     84.63422200	    -21.12642362	    -34.16626245	    -44.75551565	    122.94209199	     81.87297100
      2.91666670	    -15.35307144	      0.72796471	     -1.69558337	      0.14072401	      1.22009068	     -0.04737522	     15.36054589	      1.36994886	      1.27198935	     36.06417305	      0.62943856	     17.84807942	     -9.79783821	     -7.49999987	     12.65810901	     -2.22905040	      3.35022523	     34.19569408	      0.59682745	     18.31171609	    -11.55110178	     -7.49999987	      2.35733448	      3.63150774	    -17.92381091	     41.01052922	    -18.66233471	     35.29232578	     86.80680461	     83.92411390	    -22.81053485	    -34.77814186	    -45.47076728	    123.28684511	     81.09827086
      2.93333330	    -14.31447351	      0.28818269	     -1.97226000	      0.16197775	      1.23731859	     -0.04558305	     14.17438727	      1.37993680	     -0.11682186	     36.92359089	      0.64443823	     10.90323113	    -10.12036919	     -7.49999987	     10.61197979	     -2.84990634	      2.65320250	     33.52874093	      0.58518692	     12.78335832	    -11.66594258	     -7.49999987	      2.07690435	      4.24899455	    -19.42727095	     44.81239587	    -19.19244323	     40.80363518	     83.98744341	     81.53752716	    -27.09891351	    -34.53358705	    -50.41055929	    123.61211233	     78.51147291
      2.95000000	    -13.23600638	      0.24435326	     -2.36564797	      0.17724573	      1.25472839	     -0.04432636	     14.27795240	      0.95168174	     -1.03369801	     39.62272498	      0.69154701	      2.30955914	    -11.82187439	     -7.49999987	     10.38481989	     -3.12236787	      1.67499330	     35.25286571	      0.61527858	      4.54111887	    -13.61533271	     -7.49999987	      1.08998730	      4.26657963	    -18.75127010	     45.97387407	    -21.20696300	     42.12158059	     83.99399224	     80.20753306	    -26.91575826	    -36.80336666	    -51.33397546	    122.80880559	     77.17816399
      2.96666670	    -11.80385669	      0.20745639	     -2.57821389	      0.20199188	      1.26838461	     -0.04312510	     14.54375190	      0.45255322	     -1.65367000	     42.67900885	      0.74488923	     -3.79758326	    -13.51185351	     -7.49999987	     10.21565391	     -3.33502442	      1.21476056	     37.57389919	      0.65578825	     -1.79555813	    -15.64181968	     -7.49999987	      0.17685670	      4.33987044	    -18.71493388	     47.67482329	    -23.10984964	     45.71262379	     83.69609178	     79.72249925	    -27.18007480	    -38.09620304	    -53.03151256	    121.68832869	     75.88476699
      2.98333330	    -10.57013240	      0.16859667	     -2.61235854	      0.21586282	      1.28174136	     -0.04131441	     16.11668941	     -0.00901017	     -2.16803882	     46.75283020	      0.81599082	     -8.22369770	    -16.43204002	     -7.49999987	     11.46806098	     -3.59963374	      1.14169974	     40.97710146	      0.71518534	     -4.55090870	    -17.19826695	     -7.49999987	     -1.31128494	      4.18437458	    -18.78676216	     47.91536037	    -25.39420105	     47.01637804	     85.20287602	     79.28549605	    -26.98587528	    -39.90197436	    -54.41817040	    121.20337544	     75.21634354
      3.00000000	     -9.10549406	      0.06156041	     -2.74498627	      0.23659068	      1.29335901	     -0.04047747	     17.74635945	     -0.46091084	     -2.62343077	     50.62034997	      0.88349178	    -10.42890056	    -19.19076574	     -7.49999987	     12.05920130	     -4.06644016	      0.76906945	     43.83450069	      0.76505636	     -4.52102075	    -18.06558224	     -7.49999987	     -3.01343399	      3.98513879	    -18.51165736	     48.02801249	    -27.58943048	     48.82095918	     86.34278227	     79.05081161	    -27.05634442	    -42.16888609	    -55.28825857	    120.75066562	     74.73981194
      3.01666670	     -8.00400689	      0.02615201	     -3.13554235	      0.26028088	      1.29909031	     -0.04047142	     18.97714150	     -0.93175135	     -2.77767232	     53.00124255	      0.92504619	    -10.17380383	    -21.39788005	     -7.49999987	     12.62467200	     -4.49074546	      0.18831176	     45.48296263	      0.79382745	     -2.68818726	    -18.73857729	     -7.49999987	     -3.93147202	      3.69707819	    -18.05116497	     47.23332999	    -30.42457464	     50.37758836	     88.28601016	     78.96135756	    -29.02312982	    -43.33306300	    -56.46192325	    121.29980329	     74.44767098
      3.03333330	     -7.55017848	     -0.06493475	     -3.35958881	      0.27159101	      1.29935952	     -0.04211497	     21.53763043	     -1.34307405	     -2.76427856	     54.48551890	      0.95095170	     -6.82228586	    -22.23146401	     -7.49999987	     14.32463562	     -5.04127435	     -0.31398159	     46.72702095	      0.81554037	      1.07469477	    -18.68646657	     -7.49999987	     -5.02233337	      3.74144661	    -17.57791202	     46.91834021	    -33.32656384	     51.85683145	     91.51087396	     78.85181436	    -31.59268901	    -43.27546657	    -58.78798348	    122.80959832	     74.04788100
      3.05000000	     -7.49042948	      0.05401454	     -3.58253250	      0.27961950	      1.30015163	     -0.04165683	     24.28189767	     -1.63433892	     -2.22902469	     54.36042244	      0.94876835	     -2.21444014	    -21.42228622	     -7.49999987	     16.53478615	     -5.32961626	     -0.85773889	     47.06350365	      0.82141310	      4.65166429	    -18.62865388	     -7.49999987	     -6.93823317	      3.50528503	    -20.58865896	     49.11803968	    -32.18309144	     54.49172851	     91.61272999	     79.16361761	    -40.19616554	    -40.11816610	    -68.58113173	    125.85356848	     72.38277380
      3.06666670	     -7.95643754	      0.35884038	     -3.39660197	      0.28874019	      1.29249772	     -0.03919625	     27.76020852	     -2.03527103	     -1.94884945	     53.48050236	      0.93341085	      1.64115444	    -19.84663596	     -7.49999987	     19.59784521	     -5.62340655	     -1.34492602	     46.36772510	      0.80926947	      6.16219696	    -17.99091670	     -7.49999987	     -8.11730795	      3.05084348	    -20.27958610	     49.50951416	    -33.29566437	     55.06977865	     92.82629255	     78.77797738	    -42.35007398	    -41.21112363	    -71.21570856	    126.43653199	     71.19157225
      3.08333330	     -8.86800203	      0.69402340	     -3.27137062	      0.30203353	      1.28610863	     -0.03955603	     31.21660887	     -2.55462544	     -1.85686173	     51.62268613	      0.90098584	      3.11229209	    -18.43691146	     -7.49999987	     23.07311577	     -5.76419155	     -1.80764144	     44.79993507	      0.78190637	      5.96238998	    -17.21306857	     -7.49999987	     -8.77539845	      2.59689939	    -19.99609433	     49.26610135	    -34.81949034	     55.27940826	     94.11007460	     78.40293473	    -43.73487692	    -42.66575589	    -72.65425188	    126.38363126	     70.80389984
      3.10000000	     -9.88556232	      0.89065137	     -2.63760922	      0.30969522	      1.27950873	     -0.03820985	     34.48086387	     -3.01278480	     -1.54799755	     49.06971283	      0.85642805	      4.77596067	    -15.62216884	     -7.49999987	     26.49286001	     -5.98644044	     -1.76265722	     41.59410836	      0.72595414	      6.43323198	    -15.37339569	     -7.49999987	     -9.59151878	      2.27972972	    -19.51986883	     49.12540333	    -36.34079177	     55.67000507	     95.48876387	     78.11888157	    -45.80907660	    -44.63563859	    -73.78145046	    126.78884298	     70.49148240
